<svg id="mt_pin" viewBox="0 0 29 41" version="1.1" xmlns="http://www.w3.org/2000/svg" xmlns:xlink="http://www.w3.org/1999/xlink">
    <g stroke="none" stroke-width="1" fill="none" fill-rule="evenodd">
        <path d="M12.7656702,16.506016 C13.1349844,16.6854737 13.5496704,16.7861333 13.9878667,16.7861333 C15.534264,16.7861333 16.7878667,15.5325306 16.7878667,13.9861333 C16.7878667,12.7669958 16.0087129,11.7298393 14.9212,11.3454587 L14.9212,5.58613333 L13.9878667,4.6528 L13.0545333,5.58613333 L13.0545333,11.3454587 C11.9670205,11.7298393 11.1878667,12.7669958 11.1878667,13.9861333 C11.1878667,14.4124673 11.2831501,14.8165465 11.4535834,15.1782375 L8.29929023,18.3325306 L8.29929023,19.6524633 L9.61922289,19.6524633 L12.7656702,16.506016 Z M14.0160043,0.016 C17.8989916,0.016 21.2027378,1.37751175 23.9272427,4.10053526 C26.6517476,6.82355876 28.014,10.1255085 28.014,14.0063846 C28.014,15.9468226 27.5282925,18.1690449 26.5568776,20.6730513 C25.5854627,23.1770577 24.4109458,25.5248141 23.0333271,27.7163205 C21.6557084,29.9078269 20.293456,31.9577735 18.9465698,33.8661603 C17.5996836,35.774547 16.4565674,37.2923088 15.5172212,38.4194455 L14.014,40.016 C13.6385288,39.5779658 13.137455,38.9990395 12.5107788,38.2792212 C11.8841026,37.5594028 10.7563527,36.119766 9.12752899,33.9603109 C7.49870532,31.8008558 6.07365163,29.7035 4.85236793,27.6682436 C3.63108423,25.6329872 2.51936865,23.33264 1.51722119,20.7672019 C0.515073729,18.2017639 0.014,15.9481581 0.014,14.0063846 C0.014,10.1255085 1.37625245,6.82355876 4.10075734,4.10053526 C6.82526223,1.37751175 10.1290084,0.016 14.0119957,0.016 L14.0160043,0.016 Z M13.9878667,24.2528 C19.6579901,24.2528 24.2545333,19.6562568 24.2545333,13.9861333 C24.2545333,8.3160099 19.6579901,3.71946667 13.9878667,3.71946667 C8.31774324,3.71946667 3.7212,8.3160099 3.7212,13.9861333 C3.7212,19.6562568 8.31774324,24.2528 13.9878667,24.2528 Z" id="Shape" fill="#231F20"></path>
    </g>
</svg>
