<svg version="1.1" id="mt_pin" xmlns="http://www.w3.org/2000/svg" xmlns:xlink="http://www.w3.org/1999/xlink" x="0px" y="0px"
	 viewBox="0 0 512 512" enable-background="new 0 0 512 512" xml:space="preserve">
<g>
	<g>
		<path fill="#231F20" d="M379.4,54.2c43.4,32.5,80.4,131.1,50,207.9c-10.8,27.2-29,45-44.1,68.6c-24.8,38.8-53.4,78.8-82.4,116.7
			c-15,17.3-30.1,34.6-45.1,52c-0.7,0-1.3,0-2,0c-25-18.9-43-50.2-61.8-75.5c-39.9-53.7-92-111.1-115.7-179.4
			c-5.8-16.8-6.2-81.4,0-98c7.7-20.8,15.4-42.2,26.5-59.8c15.6-24.8,45.5-48.1,75.5-60.8c15.4-3.9,30.7-7.8,46.1-11.8
			c24.8-0.2,58.4-4.4,78.4,2.9C333.3,27.4,357.6,37.8,379.4,54.2z M373.5,232.6C408.6,144,336.1,70.9,252.9,68.9
			c-12.4,2.3-24.8,4.6-37.3,6.9c-34.6,11.9-62.8,37.7-76.5,70.6c-33.5,80.5,47.4,181.6,136.3,160.8
			C321.2,296.4,357.6,272.7,373.5,232.6z"/>
	</g>
	<g>
		<path fill="#231F20" d="M268.6,160.1c17.7,12.1,40.4,40,11.8,59.8c-6.1,4.2-12.8,1.3-20.6,4.9c-10.8,15.4-21.6,30.7-32.4,46.1
			c-4.2,0-8.5,0-12.7,0c4-23.3,18.5-31.4,26.5-51c-15.4-19.3-15.5-48.9,10.8-57.8c4.7-10.1,2.2-32.4,2-46.1
			c1.6-1.3,3.3-2.6,4.9-3.9c1.6,0,3.3,0,4.9,0C270,121.4,267.6,146,268.6,160.1z"/>
	</g>
</g>
</svg>
