<?xml version="1.0" encoding="utf-8"?>
<!-- Generator: Adobe Illustrator 18.0.0, SVG Export Plug-In . SVG Version: 6.00 Build 0)  -->
<!DOCTYPE svg PUBLIC "-//W3C//DTD SVG 1.1//EN" "http://www.w3.org/Graphics/SVG/1.1/DTD/svg11.dtd">
<svg version="1.1" id="mt_pin" xmlns="http://www.w3.org/2000/svg" xmlns:xlink="http://www.w3.org/1999/xlink" x="0px" y="0px"
	 viewBox="0 0 512 512" enable-background="new 0 0 512 512" xml:space="preserve">
<g>
	<path fill-rule="evenodd" clip-rule="evenodd" fill="none" d="M226.4,10c116.4-1.3,167.8,33.9,202,110.8
		c10,22.6,24.7,85,11.8,119.6c-25.4,68-69.6,116.6-106.9,168.6c-22.8,31.8-45.5,70.7-76.5,94.1c-0.7,0-1.3,0-2,0
		c-24.3-32.9-55-62.6-79.4-96.1c-17.6-24.1-30.9-50.5-51-74.5c-16.6-19.9-33.3-41.3-43.1-65.7c-28-69.5-1.4-154.1,30.4-195.1
		c15.9-20.6,42-38.5,66.7-50C193.6,14.7,210.7,17,226.4,10z"/>
	<path fill-rule="evenodd" clip-rule="evenodd" fill="none" d="M252.9,64.9c79.2,1.3,159.7,75.4,126.5,162.8
		c-16.8,44.3-54,71.8-103.9,83.3c-89.2,20.6-174.4-83.3-140.2-164.7c14.4-34.2,44.2-62.2,80.4-74.5
		C228.1,69.5,240.5,67.2,252.9,64.9z"/>
	<g id="XMLID_2_">
		<g>
			<path fill="#231F20" d="M379.4,54.2c43.4,32.5,80.4,131.1,50,207.9c-10.8,27.2-29,45-44.1,68.6c-24.8,38.8-53.4,78.8-82.4,116.7
				c-15,17.3-30.1,34.6-45.1,52c-0.7,0-1.3,0-2,0c-25-18.9-43-50.2-61.8-75.5c-39.9-53.7-92-111.1-115.7-179.4
				c-5.8-16.8-6.2-81.4,0-98c7.7-20.8,15.4-42.2,26.5-59.8c15.6-24.8,45.5-48.1,75.5-60.8c15.4-3.9,30.7-7.8,46.1-11.8
				c24.8-0.2,58.4-4.4,78.4,2.9C333.3,27.4,357.6,37.8,379.4,54.2z M373.5,232.6C408.6,144,336.1,70.9,252.9,68.9
				c-12.4,2.3-24.8,4.6-37.3,6.9c-34.6,11.9-62.8,37.7-76.5,70.6c-33.5,80.5,47.4,181.6,136.3,160.8
				C321.2,296.4,357.6,272.7,373.5,232.6z"/>
		</g>
		<g>
			<path fill="none" stroke="#231F20" stroke-width="2.4512" stroke-miterlimit="10" d="M226.4,14c-15.4,3.9-30.7,7.8-46.1,11.8
				c-30,12.6-59.9,36-75.5,60.8c-11.1,17.6-18.8,39-26.5,59.8c-6.2,16.6-5.8,81.2,0,98c23.7,68.3,75.8,125.7,115.7,179.4
				c18.8,25.2,36.8,56.6,61.8,75.5c0.7,0,1.3,0,2,0c15-17.3,30.1-34.6,45.1-52c28.9-37.9,57.6-77.9,82.4-116.7
				c15.1-23.7,33.3-41.4,44.1-68.6c30.4-76.7-6.6-175.3-50-207.9c-21.8-16.4-46.1-26.8-74.5-37.3C284.9,9.5,251.2,13.8,226.4,14z"/>
			<path fill="none" stroke="#231F20" stroke-width="2.4512" stroke-miterlimit="10" d="M252.9,68.9c-12.4,2.3-24.8,4.6-37.3,6.9
				c-34.6,11.9-62.8,37.7-76.5,70.6c-33.5,80.5,47.4,181.6,136.3,160.8c45.7-10.7,82.1-34.4,98-74.5
				C408.6,144,336.1,70.9,252.9,68.9z"/>
		</g>
	</g>
	<path fill-rule="evenodd" clip-rule="evenodd" fill="none" d="M258.8,108.1c5.4,0.5,5.3,0.9,7.8,3.9c1.6,1,3.3,2,4.9,2.9
		c0.3,15,0.7,30.1,1,45.1c22.7,6.2,31.5,37.5,15.7,56.9c-7.1,8.7-19.8,6.5-28.4,13.7c-11.1,14.7-22.2,29.4-33.3,44.1
		c-7.5,0.3-11.7-0.5-15.7-2.9c0-0.3,0-0.7,0-1c3.7-23.6,20.5-31.3,26.5-52c-11.9-8.7-15.8-32.8-5.9-47.1c6.2-4.6,12.4-9.2,18.6-13.7
		c-0.3-14.1-2.5-36.9,2.9-46.1C254.9,110.7,256.8,109.4,258.8,108.1z"/>
	<g id="XMLID_1_">
		<g>
			<path fill="#231F20" d="M268.6,160.1c17.7,12.1,40.4,40,11.8,59.8c-6.1,4.2-12.8,1.3-20.6,4.9c-10.8,15.4-21.6,30.7-32.4,46.1
				c-4.2,0-8.5,0-12.7,0c4-23.3,18.5-31.4,26.5-51c-15.4-19.3-15.5-48.9,10.8-57.8c4.7-10.1,2.2-32.4,2-46.1
				c1.6-1.3,3.3-2.6,4.9-3.9c1.6,0,3.3,0,4.9,0C270,121.4,267.6,146,268.6,160.1z"/>
		</g>
		<g>
			<path fill="none" stroke="#231F20" stroke-width="2.4512" stroke-miterlimit="10" d="M258.8,112c-1.6,1.3-3.3,2.6-4.9,3.9
				c0.3,13.7,2.7,36-2,46.1c-26.3,9-26.2,38.5-10.8,57.8c-8,19.6-22.4,27.7-26.5,51c4.2,0,8.5,0,12.7,0
				c10.8-15.4,21.6-30.7,32.4-46.1c7.8-3.6,14.5-0.7,20.6-4.9c28.6-19.8,5.9-47.7-11.8-59.8c-1-14,1.4-38.7-4.9-48
				C262.1,112,260.4,112,258.8,112z"/>
		</g>
	</g>
</g>
</svg>
