<?xml version="1.0" encoding="utf-8"?>
<!-- Generator: Adobe Illustrator 18.0.0, SVG Export Plug-In . SVG Version: 6.00 Build 0)  -->
<!DOCTYPE svg PUBLIC "-//W3C//DTD SVG 1.1//EN" "http://www.w3.org/Graphics/SVG/1.1/DTD/svg11.dtd">
<svg version="1.1" id="Layer_1" xmlns="http://www.w3.org/2000/svg" xmlns:xlink="http://www.w3.org/1999/xlink" x="0px" y="0px"
	 viewBox="0 0 512 512" enable-background="new 0 0 512 512" xml:space="preserve">
<g id="icomoon-ignore">
	<line fill="none" stroke="#449FDB" x1="0" y1="0" x2="0" y2="0"/>
</g>
<g id="layer5">
	<path id="path3841" d="M256,0C114.6,0,0,114.7,0,256c0,141.4,114.6,256,256,256c141.4,0,256-114.6,256-256C512,114.6,397.4,0,256,0
		 M379.7,371.6c-3.8,0-8.5,1.5-13.8,3.2c-7.1,2.2-14.7,4.6-21.6,5.5c-19.7-50.2-34.5-99.1-45.5-149.4c-10,17.3-10.4,40.6-10.8,63.1
		c-0.4,24.5-0.8,49.9-8.6,67.2l-3.9-1.4c-6.9,0-12.8,0.8-18.9,1.6c-5.8,0.8-11.7,1.6-18.2,1.6c-2.6,0-5.3-0.2-8.1-0.4
		c-4.2-7.6-9.7-16.4-15.1-25.2c-8.6-13.9-17.2-27.9-27-40.6c-3.2,8-2.2,14.1-1.2,20.2c1.8,11.8,3.6,23,2.6,37.3
		c-6.5,3.3-21.4,11.6-38.4,11.6c-2.6,0-5.3-0.2-7.9-0.7c-14.1-45.6-12.9-93.9-11.7-149.9l0.6-32.6c12.1-3.4,24.8-6,39-6
		c3.2,0,6.6,0.2,10,0.4c12.3,17.5,23.2,39.4,33.7,60.7c6,12.1,11.9,24.2,18.5,35.7c11.8-48.5,20.8-102.7,47-138.2
		c0.7,0.4,2,0.5,3.5,0.5h1.7c5.6,0,10.5,0.8,15.3,1.6c5.1,0.8,10.1,1.6,16,1.6c1.8,0,3.8,0,5.7-0.2c16.4,36.3,26.1,83.8,35.6,129.7
		c7.3,35.7,14.9,72.6,26.5,104.7C383.2,372.1,381.5,371.6,379.7,371.6"/>
	<g id="g4052" transform="matrix(34.909503,0,0,34.907044,-29035.15,-7661.2728)">
	</g>
</g>
</svg>
